:SAMPLES-PER-SECOND 30
:FULLY-SPECIFIED
:DEGREES
877
root  32.2014 39.7059 32.1877 168.576 71.8856 171.143
RightUpLeg  1.07576 -11.5565 -3.88129
RightLeg  10.9072 -9.76276 2.22828
RightFoot  -6.57623 0.0583284 -2.47333
RightToes  5.82063e-011 0 -3.6325e-017
Spine  7.17443 0.627702 13.5826
Spine1  10.0517 2.59806 -4.39491
HEad  -35.2941 24.6959 -24.562
LeftShoulder1  -0.30542 4.29123 -32.4421
LeftArm  -4.53596 20.978 -39.9588
LeftForeArm  21.7345 -12.3692 -6.66198
LeftHand  0.00898104 7.96123 2.20709
RightShoulder  -0.948982 -6.16988 29.0112
RightArm  16.1506 6.61614 37.8134
RightForeArm  -5.86228 20.0819 5.14526
RightHand  -0.702841 5.78306 -7.53024
LeftUpLeg  -16.0233 12.1729 -2.27326
LeftLeg  18.5756 2.86165 1.43083
LeftFoot  -2.97409 0.463422 -6.08832
LeftToes  1.54581e-011 7.46816e-011 -4.69922e-011
878
root  32.7218 39.725 32.3621 169.805 70.5941 172.217
RightUpLeg  2.15218 -11.1025 -3.16197
RightLeg  10.0113 -11.68 2.09469
RightFoot  -6.90003 0.0515373 -2.52811
RightToes  5.82063e-011 0 -3.6325e-017
Spine  6.76027 0.701753 13.456
Spine1  10.1512 2.78615 -5.15768
HEad  -35.7384 24.7629 -25.1158
LeftShoulder1  -0.149068 3.91089 -30.989
LeftArm  -3.42388 21.6496 -41.1659
LeftForeArm  20.7853 -13.0297 -6.7625
LeftHand  -0.0101741 7.76165 1.47328
RightShoulder  -1.04948 -6.38491 29.9558
RightArm  15.9393 7.32535 38.5388
RightForeArm  -7.86998 18.9309 5.38987
RightHand  -0.986308 8.01674 -8.85164
LeftUpLeg  -15.9813 14.9768 -3.79583
LeftLeg  13.0731 5.25896 0.8894
LeftFoot  -3.09071 0.430055 -5.70411
LeftToes  1.54581e-011 7.46816e-011 -4.69922e-011
879
root  33.2558 39.7235 32.5001 171.393 69.2716 173.903
RightUpLeg  3.68175 -10.4287 -2.16835
RightLeg  8.67412 -13.7089 2.08864
RightFoot  -7.25114 0.028843 -2.18347
RightToes  5.82063e-011 0 -3.6325e-017
Spine  6.79047 0.634031 14.3385
Spine1  9.70726 3.17525 -6.95671
HEad  -34.4946 23.1969 -24.4652
LeftShoulder1  -0.0419904 3.58549 -30.4822
LeftArm  -3.0561 21.2366 -41.3001
LeftForeArm  21.5489 -12.8714 -6.93213
LeftHand  -0.00949876 7.789 1.48086
RightShoulder  -1.21161 -6.67792 31.2905
RightArm  17.866 8.33728 38.3704
RightForeArm  -5.73206 17.9819 5.60023
RightHand  -0.554757 3.97326 -7.17665
LeftUpLeg  -15.067 11.8431 -3.16512
LeftLeg  8.3062 14.5243 -0.983814
LeftFoot  -3.28372 0.405939 -5.48123
LeftToes  1.54581e-011 7.46816e-011 -4.69922e-011
880
root  33.8517 39.6987 32.6027 172.48 67.6679 175.563
RightUpLeg  5.86578 -10.0228 -1.28845
RightLeg  7.29389 -15.8374 2.28498
RightFoot  -7.6684 0.0142093 -2.06227
RightToes  5.82063e-011 0 -3.6325e-017
Spine  7.47349 0.73685 18.3411
Spine1  8.74576 5.02162 -12.727
HEad  -34.7215 23.1816 -24.0039
LeftShoulder1  0.545582 1.91879 -28.0902
LeftArm  -2.51577 20.4106 -41.9393
LeftForeArm  23.3738 -12.1246 -7.42331
LeftHand  -0.00293841 8.20916 1.61813
RightShoulder  -1.83509 -8.04834 33.9501
RightArm  17.7548 7.24049 37.9622
RightForeArm  -6.28671 17.1237 5.85123
RightHand  -0.567765 4.71166 -6.80616
LeftUpLeg  -13.295 7.55996 -2.32609
LeftLeg  3.88941 25.4796 -3.39948
LeftFoot  -3.48606 0.336454 -4.5968
LeftToes  1.54581e-011 7.46816e-011 -4.69922e-011
881
root  34.3627 39.6098 32.6407 174.477 67.0074 177.661
RightUpLeg  6.74453 -9.55845 -0.128846
RightLeg  7.01152 -17.0978 2.50369
RightFoot  -8.45481 -0.00826227 -1.93529
RightToes  5.82063e-011 0 -3.6325e-017
Spine  7.35605 0.895292 15.4895
Spine1  8.39844 3.9555 -8.78513
HEad  -36.3176 24.5645 -26.3164
LeftShoulder1  0.109178 3.19691 -30.9613
LeftArm  -0.476945 19.2701 -40.4445
LeftForeArm  22.3551 -12.9713 -7.47673
LeftHand  -0.0129654 8.2053 1.25415
RightShoulder  -1.315 -6.97253 31.3035
RightArm  16.0042 7.22885 41.1476
RightForeArm  -2.31808 14.0322 6.4435
RightHand  -0.508367 4.40242 -6.299
LeftUpLeg  -12.6097 5.9878 -2.22404
LeftLeg  1.07111 34.8568 -4.87772
LeftFoot  -3.58904 0.214582 -2.84549
LeftToes  1.54581e-011 7.46816e-011 -4.69922e-011
882
root  35.0172 39.4783 32.6878 176.752 65.7538 -179.836
RightUpLeg  7.97579 -8.97546 1.41965
RightLeg  6.64685 -19.0132 2.65786
RightFoot  -9.33132 -0.03239 -1.78754
RightToes  5.82063e-011 0 -3.6325e-017
Spine  5.30219 1.28658 12.0557
Spine1  10.2916 2.81417 -3.79496
HEad  -38.2033 26.9338 -29.6977
LeftShoulder1  -0.329132 4.33272 -33.975
LeftArm  1.6576 17.602 -39.1427
LeftForeArm  20.343 -14.4005 -7.145
LeftHand  -0.0259865 8.64794 0.688079
RightShoulder  -0.856665 -5.92469 28.901
RightArm  13.4877 7.71051 43.8997
RightForeArm  2.70512 10.7131 6.85439
RightHand  -0.41524 3.33223 -5.76732
LeftUpLeg  -11.9891 6.46877 -2.29215
LeftLeg  0.154642 40.7386 -5.80062
LeftFoot  -3.83379 0.133717 -1.68914
LeftToes  1.54581e-011 7.46816e-011 -4.69922e-011
883
root  35.6404 39.3034 32.7091 178.671 65.2003 -177.664
RightUpLeg  8.74375 -8.682 2.68829
RightLeg  7.24648 -19.8684 2.79163
RightFoot  -10.5476 -0.0582928 -1.77799
RightToes  5.82063e-011 0 -3.6325e-017
Spine  5.22038 1.62917 11.8101
Spine1  9.75653 3.10924 -3.66821
HEad  -40.7434 30.3273 -31.4185
LeftShoulder1  -0.384585 4.45317 -34.3859
LeftArm  4.74883 17.2465 -38.5065
LeftForeArm  17.1188 -16.5025 -6.53293
LeftHand  -0.0251774 8.05606 0.748564
RightShoulder  -0.799542 -5.757 28.8679
RightArm  13.0323 6.93867 45.278
RightForeArm  5.17306 9.19657 7.03217
RightHand  -0.399594 3.20278 -5.61002
LeftUpLeg  -11.2567 7.2893 -2.16445
LeftLeg  0.393316 44.1652 -6.22747
LeftFoot  -3.70161 0.0555385 -0.493284
LeftToes  1.54581e-011 7.46816e-011 -4.69922e-011
